<?xml version="1.0" encoding="UTF-8" standalone="no"?>
<!-- Generator: Adobe Illustrator 24.0.3, SVG Export Plug-In . SVG Version: 6.00 Build 0)  -->

<svg
   xmlns:dc="http://purl.org/dc/elements/1.1/"
   xmlns:cc="http://creativecommons.org/ns#"
   xmlns:rdf="http://www.w3.org/1999/02/22-rdf-syntax-ns#"
   xmlns:svg="http://www.w3.org/2000/svg"
   xmlns="http://www.w3.org/2000/svg"
   xmlns:sodipodi="http://sodipodi.sourceforge.net/DTD/sodipodi-0.dtd"
   xmlns:inkscape="http://www.inkscape.org/namespaces/inkscape"
   version="1.1"
   id="Layer_1"
   x="0px"
   y="0px"
   viewBox="0 0 510 457.8"
   style="enable-background:new 0 0 510 457.8;"
   xml:space="preserve"
   sodipodi:docname="joulesjs.svg"
   inkscape:version="0.92.4 (5da689c313, 2019-01-14)"><metadata
   id="metadata15"><rdf:RDF><cc:Work
       rdf:about=""><dc:format>image/svg+xml</dc:format><dc:type
         rdf:resource="http://purl.org/dc/dcmitype/StillImage" /></cc:Work></rdf:RDF></metadata><defs
   id="defs13" /><sodipodi:namedview
   pagecolor="#ffffff"
   bordercolor="#666666"
   borderopacity="1"
   objecttolerance="10"
   gridtolerance="10"
   guidetolerance="10"
   inkscape:pageopacity="0"
   inkscape:pageshadow="2"
   inkscape:window-width="2560"
   inkscape:window-height="1346"
   id="namedview11"
   showgrid="false"
   inkscape:zoom="1.28"
   inkscape:cx="656.76901"
   inkscape:cy="400.5441"
   inkscape:window-x="-11"
   inkscape:window-y="-11"
   inkscape:window-maximized="1"
   inkscape:current-layer="Layer_2_1_" />
<style
   type="text/css"
   id="style2">
	.st0{fill:#6DB33F;}
</style>
<title
   id="title4">icon-spring-boot</title>
<g
   id="Layer_2_1_">
	<g
   id="Layer_1-2">
		<path
   class="st0"
   d="m 153.88276,457.50418 200.85108,0.55012 c 17.42684,0.0707 38.90448,-12.19429 47.7024,-27.32197 L 503.3861,257.15305 c 8.74765,-15.04123 8.83749,-39.86062 0.15829,-54.97258 L 403.69345,27.964631 C 395.01424,12.852662 373.66261,0.43502135 356.23576,0.36428806 L 155.34851,-0.32254292 C 137.92167,-0.39327897 116.44402,11.871753 107.6461,26.999429 L 6.6459715,200.66515 c -8.7476579,15.04123 -8.7872151,39.77418 -0.1582851,54.97258 L 106.42507,429.90384 c 8.67918,15.11198 30.03084,27.52961 47.45769,27.60034 z M 276.92897,216.49233 c 9.85459,5.73122 13.21841,18.44597 7.4872,28.30057 -5.73122,9.8546 -18.44597,13.21841 -28.30057,7.4872 l -3.19843,-1.86014 c -9.85459,-5.73122 -13.21841,-18.44595 -7.48719,-28.30056 5.73121,-9.8546 18.44596,-13.21841 28.30057,-7.4872 v 0 z m -134.9723,-54.55071 c 38.91195,-66.907546 125.0441,-89.694666 191.95166,-50.78272 38.33079,22.40803 63.82038,61.52543 68.91696,105.67229 1.15062,10.15509 -6.10041,19.24149 -16.25551,20.39211 -10.1551,1.15061 -19.24149,-6.10041 -20.39211,-16.25552 v 0 C 359.776,164.14667 308.50022,123.22034 251.67911,129.622 c -56.82111,6.40167 -97.74745,57.67745 -91.34577,114.49856 3.63453,32.53813 22.55323,61.47155 50.90682,77.96137 28.49031,16.45365 63.04418,18.50301 93.30974,5.44906 9.30909,-4.07196 20.19123,0.29026 24.2632,9.59934 4.07197,9.30909 -0.29026,20.19123 -9.59933,24.2632 -40.95594,17.71078 -87.87014,14.83542 -126.47438,-7.50026 -66.99399,-38.96223 -89.69467,-125.0441 -50.78272,-191.95165 z"
   id="path6"
   inkscape:connector-curvature="0"
   style="fill:#6db33f"
   sodipodi:nodetypes="ccssccccsscccsssssccssccsccscccsccs" /><path
   style="opacity:1;fill:#6db33f;fill-opacity:1;stroke:none;stroke-width:0.91652972;stroke-miterlimit:4;stroke-dasharray:none;stroke-opacity:1"
   id="path4549-5"
   sodipodi:type="arc"
   sodipodi:cx="148.13844"
   sodipodi:cy="302.31406"
   sodipodi:rx="18.732271"
   sodipodi:ry="18.732271"
   sodipodi:start="3.8997637"
   sodipodi:end="3.8815075"
   sodipodi:open="true"
   d="m 134.53704,289.43385 a 18.732271,18.732271 0 0 1 26.4194,-0.77984 18.732271,18.732271 0 0 1 0.90041,26.41557 18.732271,18.732271 0 0 1 -26.41118,1.02096 18.732271,18.732271 0 0 1 -1.1415,-26.40625" /><path
   style="opacity:1;fill:#ffffff;fill-opacity:1;stroke:none;stroke-width:0.51895821;stroke-miterlimit:4;stroke-dasharray:none;stroke-opacity:1"
   id="path4549-5-6-0"
   sodipodi:type="arc"
   sodipodi:cx="148.20512"
   sodipodi:cy="302.25989"
   sodipodi:rx="10.606602"
   sodipodi:ry="10.606602"
   sodipodi:start="3.8997637"
   sodipodi:end="3.8815075"
   sodipodi:open="true"
   d="m 140.50373,294.96685 a 10.606602,10.606602 0 0 1 14.95921,-0.44157 10.606602,10.606602 0 0 1 0.50983,14.95705 10.606602,10.606602 0 0 1 -14.95456,0.57809 10.606602,10.606602 0 0 1 -0.64634,-14.95177" />
	<path
   style="opacity:1;fill:#6db33f;fill-opacity:1;stroke:none;stroke-width:0.91436738;stroke-miterlimit:4;stroke-dasharray:none;stroke-opacity:1"
   id="path4549"
   sodipodi:type="arc"
   sodipodi:cx="264.83401"
   sodipodi:cy="98.137756"
   sodipodi:rx="18.688078"
   sodipodi:ry="18.688078"
   sodipodi:start="3.8997637"
   sodipodi:end="3.8815075"
   sodipodi:open="true"
   d="m 251.2647,85.287935 a 18.688078,18.688078 0 0 1 26.35707,-0.778001 18.688078,18.688078 0 0 1 0.89829,26.353246 18.688078,18.688078 0 0 1 -26.34887,1.01856 18.688078,18.688078 0 0 1 -1.13881,-26.343953" /><path
   style="opacity:1;fill:#ffffff;fill-opacity:1;stroke:none;stroke-width:0.51895821;stroke-miterlimit:4;stroke-dasharray:none;stroke-opacity:1"
   id="path4549-5-6-9"
   sodipodi:type="arc"
   sodipodi:cx="264.89157"
   sodipodi:cy="97.890862"
   sodipodi:rx="10.606602"
   sodipodi:ry="10.606602"
   sodipodi:start="3.8997637"
   sodipodi:end="3.8815075"
   sodipodi:open="true"
   d="m 257.19017,90.597819 a 10.606602,10.606602 0 0 1 14.95922,-0.441561 10.606602,10.606602 0 0 1 0.50983,14.957042 10.606602,10.606602 0 0 1 -14.95456,0.57809 10.606602,10.606602 0 0 1 -0.64634,-14.951765" /></g><g
   transform="matrix(0.1038463,-0.05995569,0.05995569,0.1038463,355.01179,324.05329)"
   id="Layer_1-2-3"
   style="fill:#ffffff;stroke:#ffffff;stroke-width:16.67898369;stroke-miterlimit:4;stroke-dasharray:none;stroke-opacity:1;fill-opacity:1"><path
     class="st0"
     d="m 219.74386,89.986324 119.28635,0.32672 c 10.34988,0.042 23.10554,-7.24225 28.33067,-16.226643 l 59.95456,-103.089502 c 5.1953,-8.933053 5.24863,-23.6734 0.094,-32.64846 L 368.10754,-165.1191 c -5.15462,-8.97507 -17.83545,-16.34996 -28.18533,-16.39197 l -119.30783,-0.40792 c -10.34988,-0.042 -23.10555,7.24225 -28.33067,16.22665 l -59.98443,103.140824 c -5.19527,8.933053 -5.21877,23.622063 -0.094,32.64846 l 59.35326,103.497413 c 5.15461,8.975067 17.83545,16.349957 28.18533,16.391967 z"
     id="path6-6"
     inkscape:connector-curvature="0"
     style="fill:#ffffff;stroke:#ffffff;stroke-width:16.67898369;stroke-miterlimit:4;stroke-dasharray:none;stroke-opacity:1;fill-opacity:1"
     sodipodi:nodetypes="ccssccccssccc" /></g>
</g>
</svg>